# Wavefront OBJ file automatically generated by Tiled2Unity

# Vertices (Count = 172)
v -2560 -3200 0
v -2688 -3200 0
v -2688 -3072 0
v -2560 -3072 0
v -2816 -3200 0
v -2816 -3072 0
v -2944 -3200 0
v -2944 -3072 0
v -2432 -3328 0
v -2560 -3328 0
v -2432 -3200 0
v -2688 -3328 0
v -2816 -3328 0
v -2944 -3328 0
v -2304 -3456 0
v -2432 -3456 0
v -2304 -3328 0
v -2560 -3456 0
v -2688 -3456 0
v -2816 -3456 0
v -2944 -3456 0
v 0 -3584 0
v -128 -3584 0
v -128 -3456 0
v 0 -3456 0
v -256 -3584 0
v -256 -3456 0
v -384 -3584 0
v -384 -3456 0
v -512 -3584 0
v -512 -3456 0
v -640 -3584 0
v -640 -3456 0
v -768 -3584 0
v -768 -3456 0
v -896 -3584 0
v -896 -3456 0
v -1024 -3584 0
v -1024 -3456 0
v -1152 -3584 0
v -1152 -3456 0
v -1280 -3584 0
v -1280 -3456 0
v -1408 -3584 0
v -1408 -3456 0
v -1536 -3584 0
v -1536 -3456 0
v -1664 -3584 0
v -1664 -3456 0
v -1792 -3584 0
v -1792 -3456 0
v -1920 -3584 0
v -1920 -3456 0
v -2048 -3584 0
v -2048 -3456 0
v -2176 -3584 0
v -2176 -3456 0
v -2304 -3584 0
v -2432 -3584 0
v -2560 -3584 0
v -2688 -3584 0
v -2816 -3584 0
v -2944 -3584 0
v 0 -3712 0
v -128 -3712 0
v -256 -3712 0
v -384 -3712 0
v -512 -3712 0
v -640 -3712 0
v -768 -3712 0
v -896 -3712 0
v -1024 -3712 0
v -1152 -3712 0
v -1280 -3712 0
v -1408 -3712 0
v -1536 -3712 0
v -1664 -3712 0
v -1792 -3712 0
v -1920 -3712 0
v -2048 -3712 0
v -2176 -3712 0
v -2304 -3712 0
v -2432 -3712 0
v -2560 -3712 0
v -2688 -3712 0
v -2816 -3712 0
v -2944 -3712 0
v 0 -3840 0
v -128 -3840 0
v -256 -3840 0
v -384 -3840 0
v -512 -3840 0
v -640 -3840 0
v -768 -3840 0
v -896 -3840 0
v -1024 -3840 0
v -1152 -3840 0
v -1280 -3840 0
v -1408 -3840 0
v -1536 -3840 0
v -1664 -3840 0
v -1792 -3840 0
v -1920 -3840 0
v -2048 -3840 0
v -2176 -3840 0
v -2304 -3840 0
v -2432 -3840 0
v -2560 -3840 0
v -2688 -3840 0
v -2816 -3840 0
v -2944 -3840 0
v -128 -3328 0
v 0 -3328 0
v -256 -3328 0
v -384 -3328 0
v -1664 -3328 0
v -1536 -3328 0
v -2048 -3328 0
v -1920 -3328 0
v -1024 -2816 0
v -1152 -2816 0
v -1152 -2688 0
v -1024 -2688 0
v -512 -2944 0
v -640 -2944 0
v -640 -2816 0
v -512 -2816 0
v -768 -2944 0
v -768 -2816 0
v -896 -2944 0
v -896 -2816 0
v -1024 -2944 0
v -1152 -2944 0
v -1280 -2944 0
v -1280 -2816 0
v -1408 -2944 0
v -1408 -2816 0
v -256 -3072 0
v -384 -3072 0
v -384 -2944 0
v -256 -2944 0
v -512 -3072 0
v -640 -3072 0
v -768 -3072 0
v -896 -3072 0
v -1024 -3072 0
v -1152 -3072 0
v -1280 -3072 0
v -1408 -3072 0
v -256 -3200 0
v -384 -3200 0
v -512 -3200 0
v -640 -3200 0
v -768 -3200 0
v -896 -3200 0
v -1024 -3200 0
v -1152 -3200 0
v -1280 -3200 0
v -512 -3328 0
v -640 -3328 0
v -768 -3328 0
v -896 -3328 0
v -1024 -3328 0
v -1152 -3328 0
v -1280 -3328 0
v -1408 -3200 0
v -1536 -3200 0
v -1536 -3072 0
v -1408 -3328 0
v -1792 -3328 0
v -1792 -3200 0
v -1664 -3200 0

# Texture cooridinates (Count = 124)
vt 0.0001220703 0.7501221
vt 0.1248779 0.7501221
vt 0.1248779 0.8123779
vt 0.0001220703 0.8123779
vt 0.0001220703 0.8751221
vt 0.1248779 0.8751221
vt 0.1248779 0.9373779
vt 0.0001220703 0.9373779
vt 0.0001220703 0.3751221
vt 0.1248779 0.3751221
vt 0.1248779 0.4373779
vt 0.0001220703 0.4373779
vt 0.1251221 0.9376221
vt 0.2498779 0.9376221
vt 0.2498779 0.9998779
vt 0.1251221 0.9998779
vt 0.3751221 0.6251221
vt 0.4998779 0.6251221
vt 0.4998779 0.6873779
vt 0.3751221 0.6873779
vt 0.3751221 0.06262207
vt 0.4998779 0.06262207
vt 0.4998779 0.1248779
vt 0.3751221 0.1248779
vt 0.2501221 0.6251221
vt 0.3748779 0.6251221
vt 0.3748779 0.6873779
vt 0.2501221 0.6873779
vt 0.3572649 0.8572649
vt 0.4284494 0.8572649
vt 0.4284494 0.9998779
vt 0.3572649 0.9998779
vt 0.2144078 0.2858364
vt 0.2855922 0.2858364
vt 0.2855922 0.4284494
vt 0.2144078 0.4284494
vt 0.1429792 0.2858364
vt 0.2141636 0.2858364
vt 0.2141636 0.4284494
vt 0.1429792 0.4284494
vt 0.07155064 0.2858364
vt 0.1427351 0.2858364
vt 0.1427351 0.4284494
vt 0.07155064 0.4284494
vt 0.9286935 0.4286935
vt 0.9998779 0.4286935
vt 0.9998779 0.5713065
vt 0.9286935 0.5713065
vt 0.8572649 0.4286935
vt 0.9284493 0.4286935
vt 0.9284493 0.5713065
vt 0.8572649 0.5713065
vt 0.0001220703 0.2858364
vt 0.0713065 0.2858364
vt 0.0713065 0.4284494
vt 0.0001220703 0.4284494
vt 0.5001221 0.4286935
vt 0.5713065 0.4286935
vt 0.5713065 0.5713065
vt 0.5001221 0.5713065
vt 0.5715507 0.4286935
vt 0.6427351 0.4286935
vt 0.6427351 0.5713065
vt 0.5715507 0.5713065
vt 0.6429792 0.4286935
vt 0.7141637 0.4286935
vt 0.7141637 0.5713065
vt 0.6429792 0.5713065
vt 0.3572649 0.4286935
vt 0.4284494 0.4286935
vt 0.4284494 0.5713065
vt 0.3572649 0.5713065
vt 0.9286935 0.5715507
vt 0.9998779 0.5715507
vt 0.9998779 0.7141637
vt 0.9286935 0.7141637
vt 0.4286935 0.4286935
vt 0.4998779 0.4286935
vt 0.4998779 0.5713065
vt 0.4286935 0.5713065
vt 0.1429792 0.4286935
vt 0.2141636 0.4286935
vt 0.2141636 0.5713065
vt 0.1429792 0.5713065
vt 0.2858364 0.4286935
vt 0.3570208 0.4286935
vt 0.3570208 0.5713065
vt 0.2858364 0.5713065
vt 0.2144078 0.4286935
vt 0.2855922 0.4286935
vt 0.2855922 0.5713065
vt 0.2144078 0.5713065
vt 0.6429792 0.1429792
vt 0.7141637 0.1429792
vt 0.7141637 0.2855922
vt 0.6429792 0.2855922
vt 0.0001220703 0.4286935
vt 0.0713065 0.4286935
vt 0.0713065 0.5713065
vt 0.0001220703 0.5713065
vt 0.0001220703 0.7144078
vt 0.0713065 0.7144078
vt 0.0713065 0.8570208
vt 0.0001220703 0.8570208
vt 0.2858364 0.7144078
vt 0.3570208 0.7144078
vt 0.3570208 0.8570208
vt 0.2858364 0.8570208
vt 0.1429792 0.7144078
vt 0.2141636 0.7144078
vt 0.2141636 0.8570208
vt 0.1429792 0.8570208
vt 0.2144078 0.7144078
vt 0.2855922 0.7144078
vt 0.2855922 0.8570208
vt 0.2144078 0.8570208
vt 0.7144078 0.8572649
vt 0.7855922 0.8572649
vt 0.7855922 0.9998779
vt 0.7144078 0.9998779
vt 0.0001220703 0.6876221
vt 0.1248779 0.6876221
vt 0.1248779 0.7498779
vt 0.0001220703 0.7498779

# Normal
vn 0 0 -1

# Groups (Count = 5)

g mesh_0001
f 1/1/1 2/2/1 3/3/1 4/4/1
f 2/5/1 5/6/1 6/7/1 3/8/1
f 5/5/1 7/6/1 8/7/1 6/8/1
f 9/1/1 10/2/1 1/3/1 11/4/1
f 10/9/1 12/10/1 2/11/1 1/12/1
f 12/13/1 13/14/1 5/15/1 2/16/1
f 13/13/1 14/14/1 7/15/1 5/16/1
f 15/1/1 16/2/1 9/3/1 17/4/1
f 16/9/1 18/10/1 10/11/1 9/12/1
f 18/13/1 19/14/1 12/15/1 10/16/1
f 19/13/1 20/14/1 13/15/1 12/16/1
f 20/13/1 21/14/1 14/15/1 13/16/1
f 22/5/1 23/6/1 24/7/1 25/8/1
f 23/5/1 26/6/1 27/7/1 24/8/1
f 26/5/1 28/6/1 29/7/1 27/8/1
f 28/5/1 30/6/1 31/7/1 29/8/1
f 30/5/1 32/6/1 33/7/1 31/8/1
f 32/5/1 34/6/1 35/7/1 33/8/1
f 34/5/1 36/6/1 37/7/1 35/8/1
f 36/5/1 38/6/1 39/7/1 37/8/1
f 38/5/1 40/6/1 41/7/1 39/8/1
f 40/5/1 42/6/1 43/7/1 41/8/1
f 42/5/1 44/6/1 45/7/1 43/8/1
f 44/5/1 46/6/1 47/7/1 45/8/1
f 46/5/1 48/6/1 49/7/1 47/8/1
f 48/5/1 50/6/1 51/7/1 49/8/1
f 50/5/1 52/6/1 53/7/1 51/8/1
f 52/5/1 54/6/1 55/7/1 53/8/1
f 54/5/1 56/6/1 57/7/1 55/8/1
f 56/5/1 58/6/1 15/7/1 57/8/1
f 58/9/1 59/10/1 16/11/1 15/12/1
f 59/13/1 60/14/1 18/15/1 16/16/1
f 60/13/1 61/14/1 19/15/1 18/16/1
f 61/13/1 62/14/1 20/15/1 19/16/1
f 62/13/1 63/14/1 21/15/1 20/16/1
f 64/13/1 65/14/1 23/15/1 22/16/1
f 65/13/1 66/14/1 26/15/1 23/16/1
f 66/13/1 67/14/1 28/15/1 26/16/1
f 67/13/1 68/14/1 30/15/1 28/16/1
f 68/13/1 69/14/1 32/15/1 30/16/1
f 69/13/1 70/14/1 34/15/1 32/16/1
f 70/13/1 71/14/1 36/15/1 34/16/1
f 71/13/1 72/14/1 38/15/1 36/16/1
f 72/13/1 73/14/1 40/15/1 38/16/1
f 73/13/1 74/14/1 42/15/1 40/16/1
f 74/13/1 75/14/1 44/15/1 42/16/1
f 75/13/1 76/14/1 46/15/1 44/16/1
f 76/13/1 77/14/1 48/15/1 46/16/1
f 77/13/1 78/14/1 50/15/1 48/16/1
f 78/13/1 79/14/1 52/15/1 50/16/1
f 79/13/1 80/14/1 54/15/1 52/16/1
f 80/13/1 81/14/1 56/15/1 54/16/1
f 81/13/1 82/14/1 58/15/1 56/16/1
f 82/13/1 83/14/1 59/15/1 58/16/1
f 83/13/1 84/14/1 60/15/1 59/16/1
f 84/13/1 85/14/1 61/15/1 60/16/1
f 85/13/1 86/14/1 62/15/1 61/16/1
f 86/13/1 87/14/1 63/15/1 62/16/1
f 88/13/1 89/14/1 65/15/1 64/16/1
f 89/13/1 90/14/1 66/15/1 65/16/1
f 90/13/1 91/14/1 67/15/1 66/16/1
f 91/13/1 92/14/1 68/15/1 67/16/1
f 92/13/1 93/14/1 69/15/1 68/16/1
f 93/13/1 94/14/1 70/15/1 69/16/1
f 94/13/1 95/14/1 71/15/1 70/16/1
f 95/13/1 96/14/1 72/15/1 71/16/1
f 96/13/1 97/14/1 73/15/1 72/16/1
f 97/13/1 98/14/1 74/15/1 73/16/1
f 98/13/1 99/14/1 75/15/1 74/16/1
f 99/13/1 100/14/1 76/15/1 75/16/1
f 100/13/1 101/14/1 77/15/1 76/16/1
f 101/13/1 102/14/1 78/15/1 77/16/1
f 102/13/1 103/14/1 79/15/1 78/16/1
f 103/13/1 104/14/1 80/15/1 79/16/1
f 104/13/1 105/14/1 81/15/1 80/16/1
f 105/13/1 106/14/1 82/15/1 81/16/1
f 106/13/1 107/14/1 83/15/1 82/16/1
f 107/13/1 108/14/1 84/15/1 83/16/1
f 108/13/1 109/14/1 85/15/1 84/16/1
f 109/13/1 110/14/1 86/15/1 85/16/1
f 110/13/1 111/14/1 87/15/1 86/16/1

g mesh_0002
f 25/17/1 24/18/1 112/19/1 113/20/1
f 24/17/1 27/18/1 114/19/1 112/20/1
f 27/17/1 29/18/1 115/19/1 114/20/1
f 47/21/1 49/22/1 116/23/1 117/24/1
f 53/25/1 55/26/1 118/27/1 119/28/1

g mesh_0003
f 120/29/1 121/30/1 122/31/1 123/32/1
f 124/33/1 125/34/1 126/35/1 127/36/1
f 125/37/1 128/38/1 129/39/1 126/40/1
f 128/37/1 130/38/1 131/39/1 129/40/1
f 130/37/1 132/38/1 120/39/1 131/40/1
f 132/37/1 133/38/1 121/39/1 120/40/1
f 133/37/1 134/38/1 135/39/1 121/40/1
f 134/41/1 136/42/1 137/43/1 135/44/1
f 138/33/1 139/34/1 140/35/1 141/36/1
f 139/37/1 142/38/1 124/39/1 140/40/1
f 142/37/1 143/38/1 125/39/1 124/40/1
f 143/45/1 144/46/1 128/47/1 125/48/1
f 144/45/1 145/46/1 130/47/1 128/48/1
f 145/45/1 146/46/1 132/47/1 130/48/1
f 146/45/1 147/46/1 133/47/1 132/48/1
f 147/45/1 148/46/1 134/47/1 133/48/1
f 148/49/1 149/50/1 136/51/1 134/52/1
f 150/53/1 151/54/1 139/55/1 138/56/1
f 151/45/1 152/46/1 142/47/1 139/48/1
f 152/45/1 153/46/1 143/47/1 142/48/1
f 153/57/1 154/58/1 144/59/1 143/60/1
f 154/61/1 155/62/1 145/63/1 144/64/1
f 155/61/1 156/62/1 146/63/1 145/64/1
f 156/61/1 157/62/1 147/63/1 146/64/1
f 157/65/1 158/66/1 148/67/1 147/68/1
f 115/57/1 159/58/1 152/59/1 151/60/1
f 159/65/1 160/66/1 153/67/1 152/68/1
f 160/69/1 161/70/1 154/71/1 153/72/1
f 161/73/1 162/74/1 155/75/1 154/76/1
f 162/73/1 163/74/1 156/75/1 155/76/1
f 163/73/1 164/74/1 157/75/1 156/76/1
f 164/77/1 165/78/1 158/79/1 157/80/1
f 29/81/1 31/82/1 159/83/1 115/84/1
f 31/85/1 33/86/1 160/87/1 159/88/1
f 33/81/1 35/82/1 161/83/1 160/84/1
f 35/89/1 37/90/1 162/91/1 161/92/1
f 37/89/1 39/90/1 163/91/1 162/92/1
f 39/89/1 41/90/1 164/91/1 163/92/1
f 41/85/1 43/86/1 165/87/1 164/88/1

g mesh_0004
f 161/93/1 162/94/1 155/95/1 154/96/1
f 162/97/1 163/98/1 156/99/1 155/100/1
f 163/101/1 164/102/1 157/103/1 156/104/1
f 25/105/1 24/106/1 112/107/1 113/108/1
f 24/109/1 27/110/1 114/111/1 112/112/1
f 27/113/1 29/114/1 115/115/1 114/116/1
f 39/117/1 41/118/1 164/119/1 163/120/1

g mesh_0005
f 166/121/1 167/122/1 168/123/1 149/124/1
f 169/121/1 117/122/1 167/123/1 166/124/1
f 116/121/1 170/122/1 171/123/1 172/124/1
f 43/121/1 45/122/1 169/123/1 165/124/1
f 45/121/1 47/122/1 117/123/1 169/124/1
f 49/121/1 51/122/1 170/123/1 116/124/1

